<svg xmlns="http://www.w3.org/2000/svg" viewBox="0 0 200 210" width="200" height="210" style="color:#f5f1e8">

  <defs>
    <mask id="m-ib1" maskUnits="userSpaceOnUse">
    <rect x="0" y="0" width="200" height="210" fill="white"></rect>
    <path d="M68,39 L132,39 L131,48 L69,48 Z" fill="black"></path>
    <circle cx="73.5" cy="111" r="4.6" fill="black"></circle>
    <circle cx="117.5" cy="111" r="4.6" fill="black"></circle>
    </mask>
  </defs>
  <g fill="currentColor" mask="url(#m-ib1)">
    <path d="M70,50 L66,15 Q66,10 71,10 L129,10 Q134,10 134,15 L130,50 Z"></path>
    <ellipse cx="100" cy="53" rx="63" ry="10"></ellipse>
    <path d="M100,50 C152,50 163,92 160,127 C157,164 132,186 100,186 C68,186 43,164 40,127 C37,92 48,50 100,50 Z" fill="none" stroke="currentColor" stroke-width="5"></path>
    <circle cx="78" cy="116" r="14"></circle>
    <circle cx="122" cy="116" r="14"></circle>
    <path d="M100,151 C91,147 88,138 93,134 C97,131 100,135 100,138 C100,135 103,131 107,134 C112,138 109,147 100,151 Z"></path>
    <path d="M100,151 L100,160" fill="none" stroke="currentColor" stroke-width="4" stroke-linecap="round"></path>
    <path d="M100,160 Q89,171 79,162 M100,160 Q111,171 121,162" fill="none" stroke="currentColor" stroke-width="4" stroke-linecap="round"></path>
    <g fill="none" stroke="currentColor" stroke-width="2.6" stroke-linecap="round">
      <path d="M88,150 Q60,150 27,145"></path>
      <path d="M88,154 Q58,158 24,160"></path>
      <path d="M88,158 Q60,165 30,174"></path>
      <path d="M112,150 Q140,150 173,145"></path>
      <path d="M112,154 Q142,158 176,160"></path>
      <path d="M112,158 Q140,165 170,174"></path>
    </g>
    <circle cx="122" cy="116" r="22" fill="none" stroke="currentColor" stroke-width="4"></circle>
    <path d="M122,138 Q121,162 109,182" fill="none" stroke="currentColor" stroke-width="2.4" stroke-linecap="round" stroke-dasharray="0.5 5"></path>
    <path d="M100,190 L78,182 L78,202 L100,194 Z"></path>
    <path d="M100,190 L122,182 L122,202 L100,194 Z"></path>
    <circle cx="100" cy="192" r="5.5"></circle>
  </g>
</svg>
